<svg xmlns="http://www.w3.org/2000/svg" width="1200" height="675" viewBox="0 0 1200 675" role="img" aria-labelledby="title desc">
  <title id="title">Verified download completion</title><desc id="desc">Wrapper completion popup showing the saved destination folder.</desc>
  <style>text{font-family:"Cascadia Mono",Consolas,monospace}.green{fill:#68f27f;font-weight:700}.muted{fill:#a7b2a8}.dim{fill:#607064}.title{fill:#c2cec4;font-weight:700}</style>
  <rect width="1200" height="675" fill="#030603"/><rect x="24" y="24" width="1152" height="627" rx="13" fill="#071007" stroke="#286f36" stroke-width="2"/><rect x="24" y="24" width="1152" height="52" rx="13" fill="#0b170c"/><path d="M24 76h1152" stroke="#286f36"/>
  <circle cx="52" cy="50" r="7" fill="#39d353"/><circle cx="76" cy="50" r="7" fill="#226b31"/><circle cx="100" cy="50" r="7" fill="#173f20"/><text x="128" y="56" font-size="18" class="muted">Wrapper · Beyond Marks</text><text x="1080" y="56" font-size="16" class="dim">v1.8.0</text>
  <g opacity=".24"><text x="60" y="120" font-size="22" class="title">◇ Everything Global Search</text><text x="60" y="165" font-size="17" class="muted">Search on: PHOENIX-DAWN</text><rect x="52" y="190" width="1096" height="48" rx="5" fill="#050a05" stroke="#286f36"/><text x="72" y="221" font-size="18" class="green">&gt; report_</text><text x="70" y="285" font-size="17" class="green">&gt; [x] FILE | D:\Shared\Reports\Q3-report.xlsx</text><text x="70" y="322" font-size="17" class="muted">  [x] FILE | D:\Shared\Reports\Status-report.docx</text></g>
  <rect x="220" y="176" width="760" height="320" rx="10" fill="#071007" stroke="#45c65d" stroke-width="2"/><text x="270" y="238" font-size="27" class="green">Download complete</text><path d="M270 263h660" stroke="#286f36"/>
  <text x="270" y="316" font-size="18" class="muted">The file or folder was downloaded and verified.</text><text x="270" y="365" font-size="17" class="dim">Saved to:</text><text x="270" y="405" font-size="18" class="green">C:\Users\Demo\Downloads\Wrapper</text><text x="480" y="462" font-size="17" class="green">[ ENTER ] Okay</text>
</svg>
